<svg xmlns="http://www.w3.org/2000/svg">
<symbol id="clue" viewBox="0 0 80 80"><path d="M34.793 4.016c-.878.007-1.78.178-2.635.26-.892 0-.881-2.435-3.157-2.114-2.275.32-1.244 2.656-2.1 2.91-1.302.434-2.6 2.473-3.033 3.51-1.013 1.808-.994 2.976-1.79 4.906-.82 2.339-.796 4.87-.916 7.33-.145 1.689-2.291 2.243-3.183 3.521-.651.651-.917 1.544-1.254 2.388 2.29.603 4.582-.29 6.68-1.11.675 2.291 2.073 4.968.723 7.283-.386.965-1.592.892-2.411 1.254-1.134 2.508-2.58 5.016-4.872 6.632-3.159 2.242-6.414 4.823-7.934 8.464l-.048.139-4.02 18.49a380.501 380.501 0 0 0-1.297 9.93h62.506c1.52-2.937 3.514-5.616 4.962-8.58.482-.795.41-1.784.265-2.676-.675-2.99-1.302-6.03-1.11-9.092.338-3.496 1.906-6.655 2.943-9.96.892-2.507-.7-5.063.072-7.595-1.809-.603-3.666-.99-5.547-1.35-.506-.7-1.47-1.689-2.315-.82-1.06 2.049-1.205 4.412-1.664 6.63-2.628-1.639-1.88-5.81-4.919-6.993-1.688-1.133-3.786-1.23-5.691-1.808l-.145 1.76c1.809-.265 3.738.29 5.016 1.592 1.688 2.652.82 6.15 2.556 8.802.434.771 1.182 1.302 1.809 1.905.096 2.074 1.616 3.714 1.712 5.787-.747.82-1.833 1.23-2.58 2.05-1.592 1.785-3.135 3.642-4.847 5.354-1.159-1.485-6.867 2.41-8.03.934l-.006.03c-.592-.744-1.188-1.486-1.785-2.23-1.929-2.267-3.183-4.992-4.437-7.645-.651-1.977.048-4.172-.555-6.15-.361-1.229-.265-2.58-.94-3.689-.651-.795-1.447-1.447-2.195-2.146.58-.7 1.327-1.326 1.688-2.17.314-.844.362-1.737.724-2.556 1.809-.073 3.593.627 5.402.41 1.037-.145 1.712-1.134 1.88-2.098-.168-1.134-.892-2.291-.385-3.425.603-1.447.603-3.062.362-4.606 1.012-.048 2.351.22 3.038-.169.687-.388.868-.451.314-1.712-.555-1.26-2.533-3.496-3.618-5.377 2.002-.459 4.196-.651 5.908-1.881.483-.651 1.423-1.52.772-2.364-1.157-2.749-4.726-2.532-7.162-2.749-1.35-2.29-2.966-4.606-5.402-5.908-1.784-.94-3.569-1.953-5.377-2.894-.623-.316-1.29-.409-1.972-.404z"/></symbol>
<symbol id="help" viewBox="0 0 24 24"><path d="M14.601 21.5a2.498 2.498 0 1 1-4.998 0c0-1.38 1.121-2.5 2.499-2.5a2.497 2.497 0 0 1 2.499 2.5zM12.181 0c-4.029 0-7.06 2.693-7.06 8h3.955c0-2.304.906-4.189 3.024-4.189 1.247 0 2.57.828 2.684 2.411.123 1.666-.767 2.511-1.892 3.582-2.924 2.78-2.816 4.049-2.816 7.196h3.943c0-1.452-.157-2.508 1.838-4.659 1.331-1.436 2.986-3.222 3.021-5.943C18.925 2.435 16.127 0 12.181 0z"/></symbol>
<symbol id="attire" viewBox="0 0 24 24"><path d="M17.944 5c-1.138 0-2.376.129-3.394.491-2.283.828-2.792.838-5.103 0-1.015-.362-2.256-.491-3.392-.491-1.971 0-4.17.387-6.055.878v1.789c.847.255 1.068.627 1.203 1.493.381 2.443 1.255 4.84 5.068 4.84 3.037 0 4.051-2.259 4.722-4.345.341-1.06 1.663-1.087 2.009-.015.673 2.089 1.682 4.36 4.725 4.36 3.814 0 4.689-2.397 5.069-4.841.135-.866.356-1.237 1.204-1.492v-1.789c-1.887-.491-4.085-.878-6.056-.878zm-7.682 3.814c-.518 2.174-1.36 4.186-3.991 4.186-3.301 0-3.974-1.903-4.275-4.973-.072-.747.092-1.04.221-1.195.947-1.134 5.952-1.088 7.611-.092.475.285.783.601.434 2.074zm11.74-.787c-.301 3.07-.975 4.973-4.275 4.973-2.629 0-3.472-2.012-3.989-4.186-.351-1.473-.042-1.789.434-2.074 1.665-1 6.667-1.038 7.611.092.129.156.293.449.219 1.195zm-4.838-1.121c1.539-.234 3.318-.03 3.791.537.104.124.234.358.176.956-.031.316-.067.616-.112.9-.41-1.487-1.457-2.283-3.855-2.393zm-14.184 2.393c-.045-.284-.082-.584-.113-.9-.058-.598.073-.832.177-.956.474-.567 2.253-.771 3.792-.537-2.398.11-3.445.906-3.856 2.393zm16.02 7.764c-1.15 2.869-6.031 2.166-7 .369-.97 1.797-5.85 2.5-7-.369.578.506 1.565.669 2.318.559 2.22-.325 2.042-2.423 3.594-2.423.425 0 .81.177 1.088.464.278-.287.662-.464 1.087-.464 1.552 0 1.375 2.099 3.594 2.423.753.11 1.74-.053 2.319-.559z"/></symbol>
<symbol id="search" viewBox="0 0 24 24"><path d="M23.111 20.058l-4.977-4.977c.965-1.52 1.523-3.322 1.523-5.251 0-5.42-4.409-9.83-9.829-9.83-5.42 0-9.828 4.41-9.828 9.83s4.408 9.83 9.829 9.83c1.834 0 3.552-.505 5.022-1.383l5.021 5.021c2.144 2.141 5.384-1.096 3.239-3.24zm-20.064-10.228c0-3.739 3.043-6.782 6.782-6.782s6.782 3.042 6.782 6.782-3.043 6.782-6.782 6.782-6.782-3.043-6.782-6.782zm2.01-1.764c1.984-4.599 8.664-4.066 9.922.749-2.534-2.974-6.993-3.294-9.922-.749z"/></symbol>
<symbol id="round" viewBox="0 0 834 694"><path d="M191.115 26.458a3.5 3.5 0 0 1-1.635 4.672C120.52 64.34 65.02 121.07 33.388 190.912a3.5 3.5 0 1 1-6.376-2.888c32.31-71.34 88.994-129.28 159.431-163.2a3.5 3.5 0 0 1 4.672 1.634z"/><path d="M188.115 2.95a3.5 3.5 0 0 1-1.637 4.671C107.251 45.716 43.488 110.796 7.148 190.913a3.5 3.5 0 1 1-6.375-2.892c37.02-81.617 101.97-147.904 182.671-186.708a3.5 3.5 0 0 1 4.671 1.637zm171.846 680.516c-182.254 0-330-147.746-330-330s147.746-330 330-330 330 147.746 330 330-147.746 330-330 330zm-.5-246c46.116 0 83.5-37.384 83.5-83.5s-37.384-83.5-83.5-83.5-83.5 37.384-83.5 83.5 37.384 83.5 83.5 83.5zm450.5-191c0 22.644-18.356 41-41 41s-41-18.356-41-41 18.356-41 41-41 41 18.356 41 41z"/><path d="M764.14 235.855c5.585-1.558 11.376 1.706 12.935 7.292l56.5 202.5a10.501 10.501 0 0 1-2.126 9.637l-200.5 235c-3.764 4.411-10.39 4.936-14.803 1.172-4.41-3.763-4.936-10.39-1.173-14.802l196.872-230.748-54.998-197.115c-1.558-5.586 1.707-11.378 7.292-12.936z"/></symbol>
<symbol id="user" viewBox="0 0 589 573"><path d="M366.827 306.22c-21.424 9.637-45.216 15.002-70.27 15.002-25.61 0-49.9-5.602-71.692-15.644C100.965 335.314 7.703 442.593.04 572.549h588.964c-7.606-129.029-99.6-235.707-222.178-266.328zM449.576 152.218c0 83.65-68.393 151.67-153.016 151.67-84.624 0-153.02-68.02-153.02-151.67 0-83.653 68.396-151.67 153.02-151.67 84.623 0 153.016 68.017 153.016 151.67z"/></symbol>
<symbol id="link" viewBox="0 0 24 24"><path d="M6.188 8.719c.439-.439.926-.801 1.444-1.087 2.887-1.591 6.589-.745 8.445 2.069l-2.246 2.245c-.644-1.469-2.243-2.305-3.834-1.949-.599.134-1.168.433-1.633.898l-4.304 4.306c-1.307 1.307-1.307 3.433 0 4.74 1.307 1.307 3.433 1.307 4.74 0l1.327-1.327c1.207.479 2.501.67 3.779.575l-2.929 2.929c-2.511 2.511-6.582 2.511-9.093 0s-2.511-6.582 0-9.093l4.304-4.306zm6.836-6.836l-2.929 2.929c1.277-.096 2.572.096 3.779.574l1.326-1.326c1.307-1.307 3.433-1.307 4.74 0 1.307 1.307 1.307 3.433 0 4.74l-4.305 4.305c-1.311 1.311-3.44 1.3-4.74 0-.303-.303-.564-.68-.727-1.051l-2.246 2.245c.236.358.481.667.796.982.812.812 1.846 1.417 3.036 1.704 1.542.371 3.194.166 4.613-.617.518-.286 1.005-.648 1.444-1.087l4.304-4.305c2.512-2.511 2.512-6.582.001-9.093-2.511-2.51-6.581-2.51-9.092 0z"/></symbol>
<symbol id="check" viewBox="0 0 24 24"><path d="M20 12.194v9.806h-20v-20h18.272l-1.951 2h-14.321v16h16v-5.768l2-2.038zm.904-10.027l-9.404 9.639-4.405-4.176-3.095 3.097 7.5 7.273 12.5-12.737-3.096-3.096z"/></symbol>
<symbol id="right" viewBox="0 0 24 24"><path d="M7.33 24l-2.83-2.829 9.339-9.175-9.339-9.167 2.83-2.829 12.17 11.996z"/></symbol>
<symbol id="down" viewBox="0 0 24 24"><path d="M0 7.33l2.829-2.83 9.175 9.339 9.167-9.339 2.829 2.83-11.996 12.17z"/></symbol>
<symbol id="info" viewBox="0 0 24 24"><path d="M12 2c5.514 0 10 4.486 10 10s-4.486 10-10 10-10-4.486-10-10 4.486-10 10-10zm0-2c-6.627 0-12 5.373-12 12s5.373 12 12 12 12-5.373 12-12-5.373-12-12-12zm-.001 5.75c.69 0 1.251.56 1.251 1.25s-.561 1.25-1.251 1.25-1.249-.56-1.249-1.25.559-1.25 1.249-1.25zm2.001 12.25h-4v-1c.484-.179 1-.201 1-.735v-4.467c0-.534-.516-.618-1-.797v-1h3v6.265c0 .535.517.558 1 .735v.999z"/></symbol>
</svg>
