<?xml version="1.0" encoding="UTF-8"?>
<svg width="1194px" height="383px" viewBox="0 0 1194 383" version="1.1" xmlns="http://www.w3.org/2000/svg" xmlns:xlink="http://www.w3.org/1999/xlink">
    <!-- Generator: Sketch 43.2 (39069) - http://www.bohemiancoding.com/sketch -->
    <title>Group</title>
    <desc>Created with Sketch.</desc>
    <defs></defs>
    <g id="Page-1" stroke="none" stroke-width="1" fill="none" fill-rule="evenodd">
        <g id="Group-2" transform="translate(-850.000000, -695.000000)" fill="#FFFFFF">
            <g id="Group" transform="translate(850.147170, 695.212648)">
                <path d="M141.383472,172.970939 L139.284312,89.0045374 L91.9365912,148.947219 L87.7382711,148.947219 L39.9240699,89.0045374 L38.2913899,172.970939 L0.0400290049,172.970939 L7.97018919,0.839815359 L13.3347093,0.373335348 L90.7703911,98.1008976 L166.340153,0.373335348 L171.704673,0.839815359 L179.868073,172.970939 L141.383472,172.970939 Z M354.853523,103.465418 C354.853523,127.256017 348.400614,145.254191 335.494602,157.460479 C322.588591,169.666767 304.62929,175.769819 281.616161,175.769819 C258.447538,175.769819 240.721475,169.70564 228.43744,157.577099 C216.153405,145.448558 210.011479,127.411511 210.011479,103.465418 L210.011479,2.00601539 L249.66228,2.00601539 L249.66228,100.666538 C249.66228,112.795079 252.30564,122.31895 257.59244,129.238438 C262.87924,136.157926 271.198051,139.617619 282.549121,139.617619 C293.744697,139.617619 301.985762,136.157926 307.272562,129.238438 C312.559361,122.31895 315.202722,112.795079 315.202722,100.666538 L315.202722,2.00601539 L354.853523,2.00601539 L354.853523,103.465418 Z M470.362771,58.9165767 C470.362771,51.7638475 467.797156,46.2050163 462.66585,42.2399163 C457.534545,38.2748164 450.692906,36.2922962 442.14073,36.2922962 C439.030848,36.2922962 436.387487,36.3700421 434.21057,36.5255362 C432.033652,36.6810303 429.545784,36.9920139 426.74689,37.4584962 L426.74689,84.5729773 C429.39029,84.8839656 431.567174,85.0783303 433.27761,85.1560773 C434.988045,85.2338244 437.009438,85.2726973 439.34185,85.2726973 C448.826991,85.2726973 456.368342,83.0569395 461.96613,78.6253572 C467.563919,74.1937749 470.362771,67.6242471 470.362771,58.9165767 Z M477.359971,172.970939 L448.20497,117.226578 C446.961017,117.382072 445.833702,117.459818 444.82299,117.459818 L441.44101,117.459818 C438.486622,117.459818 435.998753,117.420945 433.97733,117.343198 C431.955906,117.265451 429.545784,117.148832 426.74689,116.993338 L426.74689,172.970939 L387.096089,172.970939 L387.096089,3.63869542 C394.404312,2.86122485 402.101155,2.20038478 410.186849,1.65615538 C418.272543,1.11192598 427.368812,0.839815359 437.47593,0.839815359 C450.848424,0.839815359 462.199324,2.31698729 471.528971,5.27137546 C480.858618,8.22576364 488.516588,12.26855 494.503111,17.3998557 C500.489635,22.5311615 504.843405,28.5564681 507.564552,35.4759562 C510.285699,42.3954443 511.646252,49.742431 511.646252,57.5171367 C511.646252,67.7797482 509.080637,77.225874 503.949331,85.8557974 C498.818026,94.4857207 491.587658,101.521724 482.258011,106.964018 L522.375292,172.970939 L477.359971,172.970939 Z M652.8119,85.9724174 C652.8119,70.4230059 648.030528,58.255774 638.46764,49.4703565 C628.904752,40.684939 614.871618,36.2922962 596.367819,36.2922962 C592.946948,36.2922962 590.148096,36.3700421 587.971179,36.5255362 C585.794261,36.6810303 583.150901,36.914268 580.041018,37.2252562 L580.041018,137.984939 C581.906948,138.140433 583.500739,138.295924 584.822439,138.451419 C586.144139,138.606913 587.504692,138.723532 588.904139,138.801279 C590.303586,138.879026 591.780758,138.917899 593.335699,138.917899 L598.933459,138.917899 C608.263106,138.917899 616.309806,137.673964 623.0738,135.186059 C629.837793,132.698153 635.435498,129.121842 639.86708,124.457018 C644.298662,119.792195 647.56399,114.194491 649.66316,107.663738 C651.762331,101.132985 652.8119,93.9026172 652.8119,85.9724174 Z M695.028341,85.9724174 C695.028341,98.5674406 693.006948,110.268197 688.964101,121.075038 C684.921254,131.881879 678.740456,141.211386 670.421521,149.063839 C662.102585,156.916292 651.490271,163.09709 638.58426,167.606419 C625.678248,172.115749 610.362308,174.370379 592.635979,174.370379 C587.660167,174.370379 583.112032,174.331506 578.991438,174.253759 C574.870844,174.176012 570.828058,174.020521 566.862958,173.787279 C562.897858,173.554038 558.816199,173.243055 554.617858,172.854319 C550.419517,172.465584 545.677017,172.037982 540.390218,171.571499 L540.390218,3.63869542 C550.341841,2.55023662 559.127127,1.81165066 566.746338,1.42291537 C574.36555,1.03418009 582.451122,0.839815359 591.003299,0.839815359 C608.729628,0.839815359 624.123314,3.01670031 637.18482,7.37053551 C650.246325,11.7243707 661.053004,17.7108043 669.605181,25.3300159 C678.157357,32.9492275 684.53252,41.928878 688.730861,52.2692366 C692.929202,62.6095952 695.028341,73.8438764 695.028341,85.9724174 Z M723.539067,172.970939 L723.539067,2.00601539 L831.76243,2.00601539 L831.76243,38.3914562 L763.189868,38.3914562 L763.189868,68.945897 L825.69819,68.945897 L825.69819,103.465418 L763.189868,103.465418 L763.189868,136.818739 L831.76243,136.818739 L831.76243,172.970939 L723.539067,172.970939 Z M947.271678,58.9165767 C947.271678,51.7638475 944.706063,46.2050163 939.574758,42.2399163 C934.443452,38.2748164 927.601813,36.2922962 919.049637,36.2922962 C915.939755,36.2922962 913.296394,36.3700421 911.119477,36.5255362 C908.942559,36.6810303 906.454691,36.9920139 903.655797,37.4584962 L903.655797,84.5729773 C906.299197,84.8839656 908.476082,85.0783303 910.186517,85.1560773 C911.896952,85.2338244 913.918345,85.2726973 916.250757,85.2726973 C925.735898,85.2726973 933.277249,83.0569395 938.875037,78.6253572 C944.472826,74.1937749 947.271678,67.6242471 947.271678,58.9165767 Z M954.268878,172.970939 L925.113877,117.226578 C923.869924,117.382072 922.742609,117.459818 921.731897,117.459818 L918.349917,117.459818 C915.395529,117.459818 912.90766,117.420945 910.886237,117.343198 C908.864813,117.265451 906.454691,117.148832 903.655797,116.993338 L903.655797,172.970939 L864.004996,172.970939 L864.004996,3.63869542 C871.313219,2.86122485 879.010062,2.20038478 887.095756,1.65615538 C895.18145,1.11192598 904.277719,0.839815359 914.384837,0.839815359 C927.757331,0.839815359 939.108231,2.31698729 948.437878,5.27137546 C957.767525,8.22576364 965.425495,12.26855 971.412018,17.3998557 C977.398542,22.5311615 981.752312,28.5564681 984.473459,35.4759562 C987.194606,42.3954443 988.555159,49.742431 988.555159,57.5171367 C988.555159,67.7797482 985.989544,77.225874 980.858238,85.8557974 C975.726933,94.4857207 968.496565,101.521724 959.166918,106.964018 L999.284199,172.970939 L954.268878,172.970939 Z" id="MURDER"></path>
                <path d="M262.02323,244.391456 L262.02323,282.176337 L320.799711,282.176337 L320.799711,316.929098 L262.02323,316.929098 L262.02323,378.970939 L222.372429,378.970939 L222.372429,208.006015 L330.595792,208.006015 L330.595792,244.391456 L262.02323,244.391456 Z M436.308959,264.916577 C436.308959,257.763847 433.743345,252.205016 428.612039,248.239916 C423.480733,244.274816 416.639095,242.292296 408.086919,242.292296 C404.977036,242.292296 402.333676,242.370042 400.156759,242.525536 C397.979841,242.68103 395.491972,242.992014 392.693078,243.458496 L392.693078,290.572977 C395.336478,290.883966 397.513363,291.07833 399.223798,291.156077 C400.934234,291.233824 402.955627,291.272697 405.288039,291.272697 C414.77318,291.272697 422.314531,289.056939 427.912319,284.625357 C433.510107,280.193775 436.308959,273.624247 436.308959,264.916577 Z M443.30616,378.970939 L414.151159,323.226578 C412.907206,323.382072 411.779891,323.459818 410.769179,323.459818 L407.387199,323.459818 C404.432811,323.459818 401.944942,323.420945 399.923519,323.343198 C397.902095,323.265451 395.491972,323.148832 392.693078,322.993338 L392.693078,378.970939 L353.042277,378.970939 L353.042277,209.638695 C360.350501,208.861225 368.047344,208.200385 376.133038,207.656155 C384.218732,207.111926 393.315001,206.839815 403.422119,206.839815 C416.794612,206.839815 428.145513,208.316987 437.475159,211.271375 C446.804806,214.225764 454.462777,218.26855 460.4493,223.399856 C466.435823,228.531162 470.789593,234.556468 473.51074,241.475956 C476.231887,248.395444 477.59244,255.742431 477.59244,263.517137 C477.59244,273.779748 475.026826,283.225874 469.89552,291.855797 C464.764214,300.485721 457.533847,307.521724 448.2042,312.964018 L488.321481,378.970939 L443.30616,378.970939 Z M507.502606,378.970939 L507.502606,208.006015 L547.153407,208.006015 L547.153407,378.970939 L507.502606,378.970939 Z M582.661333,378.970939 L582.661333,208.006015 L690.884696,208.006015 L690.884696,244.391456 L622.312134,244.391456 L622.312134,274.945897 L684.820456,274.945897 L684.820456,309.465418 L622.312134,309.465418 L622.312134,342.818739 L690.884696,342.818739 L690.884696,378.970939 L582.661333,378.970939 Z M865.636905,382.236299 L762.544823,289.640017 L762.544823,378.970939 L722.894022,378.970939 L722.894022,205.673615 L728.258542,204.740655 L829.951184,296.637217 L829.951184,208.006015 L869.601985,208.006015 L869.601985,381.536579 L865.636905,382.236299 Z M1016.36539,291.972417 C1016.36539,276.423006 1011.58402,264.255774 1002.02113,255.470357 C992.458246,246.684939 978.425112,242.292296 959.921313,242.292296 C956.500442,242.292296 953.70159,242.370042 951.524673,242.525536 C949.347755,242.68103 946.704395,242.914268 943.594512,243.225256 L943.594512,343.984939 C945.460442,344.140433 947.054233,344.295924 948.375933,344.451419 C949.697633,344.606913 951.058186,344.723532 952.457633,344.801279 C953.85708,344.879026 955.334252,344.917899 956.889193,344.917899 L962.486953,344.917899 C971.8166,344.917899 979.863299,343.673964 986.627293,341.186059 C993.391287,338.698153 998.988992,335.121842 1003.42057,330.457018 C1007.85216,325.792195 1011.11748,320.194491 1013.21665,313.663738 C1015.31582,307.132985 1016.36539,299.902617 1016.36539,291.972417 Z M1058.58184,291.972417 C1058.58184,304.567441 1056.56044,316.268197 1052.51759,327.075038 C1048.47475,337.881879 1042.29395,347.211386 1033.97501,355.063839 C1025.65608,362.916292 1015.04377,369.09709 1002.13775,373.606419 C989.231742,378.115749 973.915802,380.370379 956.189473,380.370379 C951.213661,380.370379 946.665526,380.331506 942.544932,380.253759 C938.424338,380.176012 934.381552,380.020521 930.416452,379.787279 C926.451352,379.554038 922.369693,379.243055 918.171352,378.854319 C913.973011,378.465584 909.230511,378.037982 903.943711,377.571499 L903.943711,209.638695 C913.895335,208.550237 922.68062,207.811651 930.299832,207.422915 C937.919044,207.03418 946.004616,206.839815 954.556793,206.839815 C972.283122,206.839815 987.676808,209.0167 1000.73831,213.370536 C1013.79982,217.724371 1024.6065,223.710804 1033.15867,231.330016 C1041.71085,238.949228 1048.08601,247.928878 1052.28435,258.269237 C1056.4827,268.609595 1058.58184,279.843876 1058.58184,291.972417 Z M1190.41788,328.591098 C1190.41788,335.432839 1189.17395,342.04124 1186.68604,348.416499 C1184.19814,354.791757 1180.42746,360.467207 1175.3739,365.443019 C1170.32034,370.418831 1163.98405,374.383871 1156.36484,377.338259 C1148.74563,380.292648 1139.80485,381.769819 1129.54224,381.769819 C1124.72192,381.769819 1119.70731,381.303344 1114.49826,380.370379 C1109.28921,379.437415 1104.15798,378.193481 1099.10442,376.638539 C1094.05086,375.083598 1089.19174,373.25657 1084.52692,371.157399 C1079.8621,369.058229 1075.66382,366.764725 1071.93196,364.276819 L1082.89424,328.357858 C1089.89148,333.33367 1097.58832,337.337583 1105.985,340.369719 C1114.38168,343.401854 1122.62275,344.917899 1130.70844,344.917899 C1137.70568,344.917899 1142.68141,343.4796 1145.6358,340.602959 C1148.59019,337.726317 1150.06736,334.188879 1150.06736,329.990538 C1150.06736,327.813621 1149.71751,325.753355 1149.01778,323.809678 C1148.31806,321.866002 1146.84089,319.883481 1144.58622,317.862058 C1142.33156,315.840634 1139.22172,313.780368 1135.25662,311.681198 C1131.29152,309.582027 1126.04367,307.210778 1119.51292,304.567378 C1112.0492,301.457495 1105.71291,298.075549 1100.50386,294.421437 C1095.29481,290.767326 1091.09653,286.841158 1087.9089,282.642817 C1084.72127,278.444476 1082.42777,273.974087 1081.02832,269.231517 C1079.62887,264.488946 1078.92916,259.552082 1078.92916,254.420776 C1078.92916,248.201012 1080.21197,242.136832 1082.77762,236.228056 C1085.34327,230.31928 1089.11395,225.071432 1094.08976,220.484356 C1099.06557,215.897279 1105.32412,212.204349 1112.86558,209.405455 C1120.40705,206.606561 1129.15346,205.207135 1139.10508,205.207135 C1143.76991,205.207135 1148.39579,205.595865 1152.98286,206.373335 C1157.56994,207.150806 1161.96258,208.161503 1166.16092,209.405455 C1170.35926,210.649408 1174.24656,212.048834 1177.82292,213.603776 C1181.39929,215.158717 1184.43138,216.79138 1186.91928,218.501816 L1176.88996,253.954296 C1174.40206,252.243861 1171.60321,250.572325 1168.49332,248.939636 C1165.38344,247.306948 1162.15699,245.829776 1158.81386,244.508076 C1155.47074,243.186376 1152.12767,242.097934 1148.78454,241.242716 C1145.44142,240.387499 1142.21496,239.959896 1139.10508,239.959896 C1131.79686,239.959896 1126.58788,241.359322 1123.478,244.158216 C1120.36812,246.95711 1118.8132,250.144692 1118.8132,253.721056 C1118.8132,256.519951 1119.35742,258.930073 1120.44588,260.951497 C1121.53434,262.97292 1123.3225,264.838822 1125.8104,266.549257 C1128.29831,268.259692 1131.44702,269.970102 1135.25662,271.680537 C1139.06623,273.390972 1143.61436,275.412365 1148.90116,277.744777 C1156.83136,281.165648 1163.47864,284.703086 1168.84318,288.357197 C1174.20773,292.011309 1178.48375,295.898604 1181.67138,300.019198 C1184.85901,304.139792 1187.11364,308.571307 1188.43534,313.313878 C1189.75704,318.056448 1190.41788,323.148804 1190.41788,328.591098 Z" id="FRIENDS"></path>
                <path d="M1083.10027,174.007579 L1081.21547,174.007579 L1068.87003,149.50518 L1056.43035,174.007579 L1054.54555,174.007579 L1038.90171,132.73046 L1050.77595,132.73046 L1057.46699,155.34806 L1067.83339,132.63622 L1069.71819,132.63622 L1080.36731,155.34806 L1086.86987,132.73046 L1098.64987,132.73046 L1083.10027,174.007579 Z M1103.19579,172.970939 L1103.19579,132.73046 L1113.93915,132.73046 L1113.93915,172.970939 L1103.19579,172.970939 Z M1114.88155,118.782941 C1114.88155,120.542096 1114.269,122.034214 1113.04387,123.259341 C1111.81874,124.484467 1110.32663,125.09702 1108.56747,125.09702 C1106.80831,125.09702 1105.3319,124.484467 1104.13819,123.259341 C1102.94448,122.034214 1102.34763,120.542096 1102.34763,118.782941 C1102.34763,117.023785 1102.94448,115.531667 1104.13819,114.306541 C1105.3319,113.081415 1106.80831,112.468861 1108.56747,112.468861 C1110.32663,112.468861 1111.81874,113.081415 1113.04387,114.306541 C1114.269,115.531667 1114.88155,117.023785 1114.88155,118.782941 Z M1137.52155,141.40054 L1137.52155,159.87158 C1137.52155,161.693562 1137.92992,162.965789 1138.74667,163.6883 C1139.56342,164.41081 1140.75712,164.77206 1142.32779,164.77206 C1142.89324,164.77206 1143.44296,164.72494 1143.97699,164.6307 C1144.51102,164.536459 1145.12358,164.426514 1145.81467,164.30086 L1147.79371,172.593979 C1146.28587,172.908114 1144.84087,173.175125 1143.45867,173.395019 C1142.07648,173.614914 1140.66289,173.724859 1139.21787,173.724859 C1137.33306,173.724859 1135.63676,173.473555 1134.12891,172.970939 C1132.62107,172.468324 1131.31743,171.651585 1130.21795,170.520699 C1129.11848,169.389814 1128.28604,167.913402 1127.72059,166.09142 C1127.15515,164.269437 1126.87243,162.0077 1126.87243,159.30614 L1126.87243,141.40054 L1119.23899,141.40054 L1119.23899,139.98694 L1126.87243,132.3535 L1126.87243,125.85094 L1137.52155,119.159901 L1137.52155,132.73046 L1148.73611,132.73046 L1148.73611,141.40054 L1137.52155,141.40054 Z M1182.4022,172.970939 L1182.4022,148.09158 C1182.4022,145.515674 1181.88388,143.662306 1180.84724,142.53142 C1179.81059,141.400534 1178.22423,140.8351 1176.08812,140.8351 C1174.26613,140.8351 1172.39706,141.369121 1170.48084,142.43718 C1168.56461,143.505239 1166.8526,144.855999 1165.34476,146.4895 L1165.34476,172.970939 L1154.6014,172.970939 L1154.6014,103.893021 L1165.25052,103.893021 L1165.25052,139.23302 C1169.83689,134.395343 1174.7059,131.97654 1179.85772,131.97654 C1184.31843,131.97654 1187.64821,133.233061 1189.84715,135.74614 C1192.0461,138.259219 1193.14555,141.49476 1193.14555,145.45286 L1193.14555,172.970939 L1182.4022,172.970939 Z" id="with" opacity="0.858525815"></path>
            </g>
        </g>
    </g>
</svg>